<svg xmlns="http://www.w3.org/2000/svg" viewBox="19.93 32.7 146.26 152.48">
  <path fill="#FF0066" d="M37.8,-57.9C49.3,-51.5,59.2,-41.5,63.4,-29.7C67.5,-18,65.9,-4.4,65.8,10.8C65.6,25.9,67,42.6,60.8,56.4C54.6,70.2,40.8,81.2,25.6,84.2C10.4,87.3,-6.2,82.5,-22.3,77.2C-38.3,71.8,-53.9,66,-62.9,54.9C-71.9,43.8,-74.4,27.4,-77,10.9C-79.7,-5.6,-82.6,-22.3,-76.3,-34.4C-70.1,-46.4,-54.7,-53.9,-40.5,-59.1C-26.3,-64.3,-13.1,-67.3,0,-67.3C13.2,-67.3,26.3,-64.4,37.8,-57.9Z" transform="translate(100 100)"/>
</svg>